# xmcd
#
# Track frame offsets: 
#        150
#        14301
#        30300
#        44728
#        61403
#        81173
#        102498
#        117620
#        130698
#        144285
#        160066
#        175763
#
# Disc length: 2538 seconds
#
# Revision: 0
# Processed by: cddbd v1.5.2PL0 Copyright (c) Steve Scherf et al.
# Submitted via: ExactAudioCopy v1.0b3
#
DISCID=9b09e80c
DTITLE=The Cadillac Three - Tennessee Mojo
DYEAR=2013
DGENRE=Southern Rock
TTITLE0=I'm Southern
TTITLE1=Tennessee Mojo
TTITLE2=Get Your Buzz On
TTITLE3=Back It Up
TTITLE4=Down To The River
TTITLE5=Days Of Gold
TTITLE6=Turn It On
TTITLE7=I'm Rockin' 
TTITLE8=Life
TTITLE9=The Sticks
TTITLE10=Whiskey Soaked Redemption
TTITLE11=White Lightning (Acoustic Version)
EXTD=
EXTT0=
EXTT1=
EXTT2=
EXTT3=
EXTT4=
EXTT5=
EXTT6=
EXTT7=
EXTT8=
EXTT9=
EXTT10=
EXTT11=
PLAYORDER=
